# xmcd
#
# Track frame offsets:
#	150
#	16626
#	26687
#	40185
#	54354
#	66770
#	81497
#	94243
#	113816
#	123551
#	137395
#	152317
#	170411
#	184636
#	195698
#	208141
#
# Disc length: 2939 seconds
#
# Revision: 1
# Processed by: cddbd v1.5.2PL0 Copyright (c) Steve Scherf et al.
# Submitted via: audiograbber 1.83.01
#
DISCID=ce0b7910
DTITLE=Sekaci - Prima den
DYEAR=1999
DGENRE=Country
TTITLE0=Tak se loucim
TTITLE1=Lesni vila
TTITLE2=Mam te zase v dome
TTITLE3=Ztracene padlo
TTITLE4=Ja musim jit
TTITLE5=Jen si zpivej
TTITLE6=Jessie
TTITLE7=Dlouha reka
TTITLE8=Prima den
TTITLE9=Do raje
TTITLE10=Blbej sen
TTITLE11=Snad snim
TTITLE12=Divka z baru
TTITLE13=Chci si s tebou hrat
TTITLE14=Nech me byt
TTITLE15=Damy
EXTD=
EXTT0=
EXTT1=
EXTT2=
EXTT3=
EXTT4=
EXTT5=
EXTT6=
EXTT7=
EXTT8=
EXTT9=
EXTT10=
EXTT11=
EXTT12=
EXTT13=
EXTT14=
EXTT15=
PLAYORDER=
